<mxfile host="app.diagrams.net" modified="2021-04-25T19:27:11.211Z" agent="5.0 (Windows NT 10.0; Win64; x64) AppleWebKit/537.36 (KHTML, like Gecko) Chrome/90.0.4430.85 Safari/537.36" etag="O_k1TVjwctWqLQ71WciV" version="14.6.6" type="github">
  <diagram id="PS3UIY--bPpSg8Buevzv" name="Page-1">
    <mxGraphModel dx="1404" dy="1472" grid="1" gridSize="10" guides="1" tooltips="1" connect="1" arrows="1" fold="1" page="1" pageScale="1" pageWidth="827" pageHeight="1169" math="0" shadow="0">
      <root>
        <mxCell id="0" />
        <mxCell id="1" parent="0" />
        <mxCell id="IExzLnxYv5k1h0c-7KHn-3" value="client" style="rounded=1;whiteSpace=wrap;html=1;align=center;fontSize=14;" parent="1" vertex="1">
          <mxGeometry x="40" y="80" width="160" height="80" as="geometry" />
        </mxCell>
        <mxCell id="IExzLnxYv5k1h0c-7KHn-4" value="server" style="rounded=1;whiteSpace=wrap;html=1;align=center;fontSize=14;" parent="1" vertex="1">
          <mxGeometry x="600" y="80" width="160" height="80" as="geometry" />
        </mxCell>
        <mxCell id="IExzLnxYv5k1h0c-7KHn-6" value="client" style="rounded=0;whiteSpace=wrap;html=1;align=center;fontSize=14;" parent="1" vertex="1">
          <mxGeometry x="50" y="260" width="120" height="60" as="geometry" />
        </mxCell>
        <mxCell id="IExzLnxYv5k1h0c-7KHn-7" value="server" style="rounded=0;whiteSpace=wrap;html=1;align=center;fontSize=14;" parent="1" vertex="1">
          <mxGeometry x="640" y="350" width="120" height="60" as="geometry" />
        </mxCell>
        <mxCell id="IExzLnxYv5k1h0c-7KHn-8" value="client" style="rounded=0;whiteSpace=wrap;html=1;align=center;fontSize=14;" parent="1" vertex="1">
          <mxGeometry x="30" y="600" width="120" height="60" as="geometry" />
        </mxCell>
        <mxCell id="IExzLnxYv5k1h0c-7KHn-24" style="edgeStyle=orthogonalEdgeStyle;rounded=0;orthogonalLoop=1;jettySize=auto;html=1;exitX=1;exitY=0.5;exitDx=0;exitDy=0;fontSize=14;entryX=0;entryY=0.5;entryDx=0;entryDy=0;" parent="1" source="IExzLnxYv5k1h0c-7KHn-9" target="IExzLnxYv5k1h0c-7KHn-25" edge="1">
          <mxGeometry relative="1" as="geometry">
            <mxPoint x="658.44" y="810" as="targetPoint" />
          </mxGeometry>
        </mxCell>
        <mxCell id="IExzLnxYv5k1h0c-7KHn-9" value="server" style="rounded=0;whiteSpace=wrap;html=1;align=center;fontSize=14;" parent="1" vertex="1">
          <mxGeometry x="640" y="910" width="120" height="60" as="geometry" />
        </mxCell>
        <mxCell id="IExzLnxYv5k1h0c-7KHn-10" value="client" style="rounded=0;whiteSpace=wrap;html=1;align=center;fontSize=14;" parent="1" vertex="1">
          <mxGeometry x="20" y="1110" width="120" height="60" as="geometry" />
        </mxCell>
        <mxCell id="IExzLnxYv5k1h0c-7KHn-12" value="" style="endArrow=classic;html=1;exitX=1;exitY=0.5;exitDx=0;exitDy=0;entryX=0;entryY=0.5;entryDx=0;entryDy=0;fontSize=14;" parent="1" source="IExzLnxYv5k1h0c-7KHn-6" target="IExzLnxYv5k1h0c-7KHn-7" edge="1">
          <mxGeometry width="50" height="50" relative="1" as="geometry">
            <mxPoint x="400" y="520" as="sourcePoint" />
            <mxPoint x="570" y="280" as="targetPoint" />
          </mxGeometry>
        </mxCell>
        <mxCell id="IExzLnxYv5k1h0c-7KHn-15" value="" style="endArrow=classic;html=1;entryX=1;entryY=0.5;entryDx=0;entryDy=0;exitX=0;exitY=0.5;exitDx=0;exitDy=0;fontSize=14;" parent="1" source="IExzLnxYv5k1h0c-7KHn-7" target="IExzLnxYv5k1h0c-7KHn-8" edge="1">
          <mxGeometry width="50" height="50" relative="1" as="geometry">
            <mxPoint x="400" y="510" as="sourcePoint" />
            <mxPoint x="450" y="460" as="targetPoint" />
          </mxGeometry>
        </mxCell>
        <mxCell id="IExzLnxYv5k1h0c-7KHn-18" value="" style="endArrow=classic;html=1;entryX=0;entryY=0.5;entryDx=0;entryDy=0;exitX=1;exitY=0.5;exitDx=0;exitDy=0;fontSize=14;" parent="1" source="IExzLnxYv5k1h0c-7KHn-8" target="IExzLnxYv5k1h0c-7KHn-9" edge="1">
          <mxGeometry width="50" height="50" relative="1" as="geometry">
            <mxPoint x="120" y="760" as="sourcePoint" />
            <mxPoint x="208.44000000000005" y="915" as="targetPoint" />
          </mxGeometry>
        </mxCell>
        <mxCell id="IExzLnxYv5k1h0c-7KHn-20" value="" style="endArrow=classic;html=1;entryX=1;entryY=0.5;entryDx=0;entryDy=0;exitX=0;exitY=0.5;exitDx=0;exitDy=0;fontSize=14;" parent="1" source="IExzLnxYv5k1h0c-7KHn-9" target="IExzLnxYv5k1h0c-7KHn-10" edge="1">
          <mxGeometry width="50" height="50" relative="1" as="geometry">
            <mxPoint x="368.44" y="730" as="sourcePoint" />
            <mxPoint x="148.44" y="1110" as="targetPoint" />
          </mxGeometry>
        </mxCell>
        <mxCell id="IExzLnxYv5k1h0c-7KHn-25" value="server kiểm tra CSDL&amp;nbsp;" style="rounded=1;whiteSpace=wrap;html=1;align=center;fontSize=14;" parent="1" vertex="1">
          <mxGeometry x="827" y="910" width="120" height="60" as="geometry" />
        </mxCell>
        <mxCell id="KoDbhlb0vy1jZnd9a4vD-1" value="Packet : 5,0,0,0,0,,,&lt;br&gt;" style="rounded=1;whiteSpace=wrap;html=1;rotation=12;" parent="1" vertex="1">
          <mxGeometry x="200" y="260" width="420" height="60" as="geometry" />
        </mxCell>
        <mxCell id="KoDbhlb0vy1jZnd9a4vD-2" value="Packet : 7,0,3,0,1,,xyz,&lt;br&gt;" style="rounded=1;whiteSpace=wrap;html=1;rotation=-27;" parent="1" vertex="1">
          <mxGeometry x="130" y="460" width="420" height="60" as="geometry" />
        </mxCell>
        <mxCell id="KoDbhlb0vy1jZnd9a4vD-3" value="Packet : 1,4,8,0,0,user,password,," style="rounded=1;whiteSpace=wrap;html=1;rotation=33;" parent="1" vertex="1">
          <mxGeometry x="240" y="750" width="420" height="60" as="geometry" />
        </mxCell>
        <mxCell id="KoDbhlb0vy1jZnd9a4vD-4" value="Đầu tiên, client sẽ lấy publickey của server." style="text;html=1;strokeColor=none;fillColor=none;align=center;verticalAlign=middle;whiteSpace=wrap;rounded=0;fontSize=14;fontStyle=1" parent="1" vertex="1">
          <mxGeometry x="365" y="180" width="170" height="70" as="geometry" />
        </mxCell>
        <mxCell id="KoDbhlb0vy1jZnd9a4vD-5" value="&lt;div style=&quot;text-align: center&quot;&gt;&lt;font face=&quot;helvetica&quot;&gt;&lt;span style=&quot;font-size: 12px ; background-color: rgb(255 , 255 , 255)&quot;&gt;Thành công, Server return lại publickey của server ( trường hợp này, publickey dài 3 kí tự, là xyz)&lt;/span&gt;&lt;/font&gt;&lt;/div&gt;" style="text;whiteSpace=wrap;html=1;fontSize=14;fontStyle=1" parent="1" vertex="1">
          <mxGeometry x="110" y="410" width="240" height="50" as="geometry" />
        </mxCell>
        <mxCell id="KoDbhlb0vy1jZnd9a4vD-6" value="&lt;div style=&quot;text-align: center&quot;&gt;&lt;font face=&quot;helvetica&quot;&gt;&lt;span style=&quot;font-size: 12px ; background-color: rgb(255 , 255 , 255)&quot;&gt;Khi client điền hết thông tin form đăng nhập, và nhấn nút, client sẽ gửi packet gồm username ( là &quot;user&quot;, dài 4 kí tự),&amp;nbsp; mật khẩu (là &quot;password&quot;,dài 8 kí tự).&lt;/span&gt;&lt;/font&gt;&lt;/div&gt;&lt;div style=&quot;text-align: center&quot;&gt;&lt;font face=&quot;helvetica&quot;&gt;&lt;span style=&quot;font-size: 12px ; background-color: rgb(255 , 255 , 255)&quot;&gt;Tất cả thông tin ( trừ 4 field&amp;nbsp; đầu) đều được mã hóa thêm bằng publickey của server&lt;/span&gt;&lt;/font&gt;&lt;/div&gt;" style="text;whiteSpace=wrap;html=1;fontSize=14;fontStyle=1" parent="1" vertex="1">
          <mxGeometry x="420" y="620" width="240" height="110" as="geometry" />
        </mxCell>
        <mxCell id="KoDbhlb0vy1jZnd9a4vD-7" value="Packet : 7,0,0,5,1,,bbbbb,ClientSessionKey&lt;br&gt;" style="rounded=1;whiteSpace=wrap;html=1;rotation=-19;" parent="1" vertex="1">
          <mxGeometry x="140" y="970" width="420" height="60" as="geometry" />
        </mxCell>
        <mxCell id="KoDbhlb0vy1jZnd9a4vD-8" value="&lt;div style=&quot;text-align: center&quot;&gt;&lt;font face=&quot;helvetica&quot;&gt;&lt;span style=&quot;font-size: 12px ; background-color: rgb(255 , 255 , 255)&quot;&gt;Nếu thành công, server trả kết quả&amp;nbsp; Success, đồng thời trả về khóa bí mật ( bị mã hóa, trong ví dụ là &quot;bbbbb&quot;, dài 5 kí tự) và ClientSessionKey&lt;/span&gt;&lt;/font&gt;&lt;/div&gt;&lt;div style=&quot;text-align: center&quot;&gt;&lt;font face=&quot;helvetica&quot;&gt;&lt;span style=&quot;font-size: 12px ; background-color: rgb(255 , 255 , 255)&quot;&gt;&lt;br&gt;&lt;/span&gt;&lt;/font&gt;&lt;/div&gt;" style="text;whiteSpace=wrap;html=1;fontSize=14;fontStyle=1" parent="1" vertex="1">
          <mxGeometry x="110" y="915" width="240" height="50" as="geometry" />
        </mxCell>
        <mxCell id="KoDbhlb0vy1jZnd9a4vD-9" value="&lt;div style=&quot;text-align: center&quot;&gt;&lt;font face=&quot;helvetica&quot;&gt;&lt;span style=&quot;font-size: 12px ; background-color: rgb(255 , 255 , 255)&quot;&gt;Hoặc thất bại, sẽ gửi kết quả Failed và lí do ( Reason &quot;wrong password&quot; dài 14 kí tự)&lt;/span&gt;&lt;/font&gt;&lt;/div&gt;" style="text;whiteSpace=wrap;html=1;fontSize=14;fontStyle=1" parent="1" vertex="1">
          <mxGeometry x="450" y="1140" width="240" height="50" as="geometry" />
        </mxCell>
        <mxCell id="KoDbhlb0vy1jZnd9a4vD-10" value="Packet : 7,15,0,0,0,wrong password,," style="rounded=1;whiteSpace=wrap;html=1;rotation=-19;" parent="1" vertex="1">
          <mxGeometry x="204" y="1070" width="420" height="60" as="geometry" />
        </mxCell>
        <mxCell id="PPSzRKp_SnaPRWY3oe9l-1" value="&lt;div style=&quot;text-align: center&quot;&gt;&lt;font face=&quot;helvetica&quot;&gt;&lt;span style=&quot;font-size: 12px ; background-color: rgb(255 , 255 , 255)&quot;&gt;Server sẽ băm password bằng SHA256, và so sánh username, mã băm của password trong CSDL. Nếu đúng, server trả về ClientSessionKey và private key mã hóa( lưu trong CSDL)&lt;/span&gt;&lt;/font&gt;&lt;/div&gt;" style="text;whiteSpace=wrap;html=1;fontSize=14;fontStyle=1" vertex="1" parent="1">
          <mxGeometry x="680" y="805" width="240" height="110" as="geometry" />
        </mxCell>
      </root>
    </mxGraphModel>
  </diagram>
</mxfile>
